<svg xmlns="http://www.w3.org/2000/svg" viewBox="0 0 100 100" width="100%" height="100%">
  <defs>
    <linearGradient id="blueBg" x1="0%" y1="0%" x2="100%" y2="100%">
      <stop offset="0%" stop-color="#0B192C"/>
      <stop offset="100%" stop-color="#1D4ED8"/>
    </linearGradient>
    <linearGradient id="silverG" x1="0%" y1="0%" x2="100%" y2="100%">
      <stop offset="0%" stop-color="#FFFFFF"/>
      <stop offset="100%" stop-color="#CBD5E1"/>
    </linearGradient>
  </defs>
  <rect width="100" height="100" rx="24" fill="url(#blueBg)"/>
  <rect x="4" y="4" width="92" height="92" rx="20" fill="none" stroke="url(#silverG)" stroke-width="2"/>
  <path d="M50 15 C50 15 78 50 78 68 C78 83 65 92 50 92 C35 92 22 83 22 68 C22 50 50 15 Z" fill="url(#silverG)"/>
  <path d="M50 25 C50 25 70 53 70 68 C70 79 61 85 50 85 C39 85 30 79 30 68 C30 53 50 25 Z" fill="#0F2C59"/>
  <!-- Car Silhouette inside -->
  <path d="M35 68 C38 60 44 55 50 55 C56 55 62 60 65 68 L70 69 C72 69 73 71 73 73 L73 76 C73 78 71 79 70 79 L30 79 C29 79 27 78 27 76 L27 73 C27 71 28 69 30 69 Z" fill="url(#silverG)"/>
</svg>
